<?xml version="1.0" encoding="UTF-8"?>
<svg id="Ebene_1" data-name="Ebene 1" xmlns="http://www.w3.org/2000/svg" viewBox="0 0 36.07 22.52">
  <defs>
    <style>
      .cls-1 {
        fill: #164194;
      }

      .cls-2 {
        fill: #d51130;
      }

      .cls-3 {
        fill: #fff;
      }
    </style>
  </defs>
  <g>
    <g>
      <path class="cls-1" d="M3.66,13.55h-1.25l.09-.34h2.9l-.09.34h-1.26l-.93,3.46h-.39l.93-3.46Z"/>
      <path class="cls-1" d="M5.9,13.21h.39l-.44,1.63h2.14l.44-1.63h.39l-1.02,3.8h-.39l.49-1.83h-2.14l-.49,1.83h-.39l1.02-3.8Z"/>
      <path class="cls-1" d="M10.21,13.21l-.61,2.3c-.26.96.21,1.21.72,1.21.61,0,1.12-.26,1.37-1.21l.61-2.3h.39l-.61,2.28c-.32,1.21-1.07,1.57-1.87,1.57s-1.33-.4-1.03-1.53l.62-2.32h.4ZM10.67,12.79l.15-.56h.34l-.15.56h-.34ZM11.73,12.79l.15-.56h.34l-.15.56h-.34Z"/>
      <path class="cls-1" d="M13.51,15.28l-.46,1.73h-.39l1.02-3.8h1.42c.76,0,1.06.41.9,1.01-.13.49-.5.8-.92.89.33.09.53.33.35.99l-.04.15c-.07.26-.18.61-.15.76h-.38c-.03-.16.07-.46.16-.8l.02-.09c.16-.59.05-.84-.65-.84h-.86ZM13.6,14.94h.88c.63,0,.98-.24,1.1-.7.12-.44-.1-.69-.66-.69h-.95l-.37,1.39Z"/>
      <path class="cls-1" d="M17.49,13.21l-1.02,3.8h-.39l1.02-3.8h.39Z"/>
      <path class="cls-1" d="M17.49,17.01l1.02-3.8h.54c.33.9,1.09,2.92,1.2,3.33h0c.1-.52.26-1.1.43-1.72l.43-1.61h.38l-1.02,3.8h-.5c-.31-.86-1.07-2.99-1.21-3.41h0c-.1.47-.26,1.06-.44,1.75l-.44,1.66h-.38Z"/>
      <path class="cls-1" d="M24.46,17.01h-.31c0-.06.03-.24.11-.57-.22.26-.62.61-1.37.61-1.09,0-1.44-.83-1.15-1.91.3-1.14,1.14-1.99,2.27-1.99.85,0,1.28.45,1.21,1.14h-.39c-.02-.49-.28-.8-.92-.8-.92,0-1.51.72-1.75,1.63-.22.83-.04,1.59.86,1.59s1.31-.6,1.51-1.35v-.04s-1.14,0-1.14,0l.09-.34h1.53l-.54,2.03Z"/>
      <path class="cls-1" d="M28.16,15.18h-1.92l-.4,1.48h2.1l-.15.34h-2.43l1.02-3.8h2.39l-.09.34h-2.01l-.34,1.29h1.92l-.09.34Z"/>
      <path class="cls-1" d="M28.52,17.01l1.02-3.8h.54c.33.9,1.09,2.92,1.2,3.33h0c.1-.52.26-1.1.43-1.72l.43-1.61h.38l-1.02,3.8h-.5c-.31-.86-1.07-2.99-1.21-3.41h0c-.1.47-.26,1.06-.44,1.75l-.44,1.66h-.38Z"/>
    </g>
    <g>
      <path class="cls-3" d="M27.41.13l-1.49,5.58c-1.72,6.78,6.69,6.78,8.26.96.58-2.14,1.15-4.31,1.75-6.54h-8.51Z"/>
      <path class="cls-2" d="M27.35,0l-1.53,5.71c-1.76,6.95,6.85,6.94,8.46.98C34.87,4.5,36.07,0,36.07,0h-8.72ZM33.42.6h.36l.19-.29.11.29h.35s-.25.29-.25.29l.12.29h-.32s-.25.29-.25.29l-.09-.29h-.3l.18-.27-.09-.3ZM31.87.37c.13-.04.24-.05.34-.05.07,0,.13,0,.18,0,.13,0,.16.04.16.05,0,.02-.05.09-.14.17-.07.07-.36.19-.56.19-.03,0-.06,0-.08,0-.14,0-.25-.01-.31-.04-.07-.02-.09-.05-.09-.07,0-.05.16-.17.51-.27ZM30.85.88c.12-.05.26-.06.39-.06.12,0,.22.01.26.02-.01.06-.02.11-.02.15,0,.11.04.2.16.2.22,0,.25-.24.25-.32.08,0,.34-.05.59-.23.13-.15.32-.23.47-.23.13,0,.21.05.21.17,0,.04-.01.08-.03.14-.09.22-.36.23-.44.36-.1.43-.37,1.1-.97,1.4-.22.11-.42.15-.59.15-.28,0-.48-.11-.54-.16-.03-.02-.05-.06-.04-.09,0-.05.03-.09.08-.09.01,0,.03,0,.04,0,.11.04.21.09.38.09.05,0,.1,0,.17-.01.24-.03.46-.32.47-.58,0-.09-.02-.18-.08-.25-.15-.18-.35-.23-.53-.23-.08,0-.15.01-.21.02h0c-.09.01-.17.02-.22.02-.05,0-.08-.01-.08-.01,0,0,0-.01,0-.03,0-.1.07-.37.29-.45ZM33.12,5.14h-.32l-.25.29-.09-.29h-.3s.18-.27.18-.27l-.1-.3h.36l.2-.29.11.29h.35l-.25.29.12.28ZM31.71,3.7c-.05,0-.12.04-.18.13-.08.11-.27.39-.44.64-.08.13-.16.24-.22.33-.03.04-.05.08-.07.1,0,.01-.01.02-.02.03l-.4.02c.23-.33.57-.8.68-.96.04-.05.06-.11.06-.15s-.02-.09-.07-.09c-.05,0-.1.04-.17.13-.08.12-.28.4-.46.66-.09.13-.18.25-.24.33-.03.04-.06.08-.08.1,0,.01-.02.02-.02.03,0,0,0,0,0,0l-.3-.02c.23-.35.47-.68.7-1.03.03-.05.05-.09.05-.13,0-.04-.03-.08-.07-.08-.05,0-.11.04-.18.13-.16.22-.74,1.01-.82,1.12l-.3-.04c.23-.34.6-.84.72-1.01.04-.05.05-.1.06-.14,0-.04-.02-.08-.07-.08-.06,0-.12.05-.19.15-.15.21-.69.92-.77,1.03l-.27-.06c.21-.32.48-.7.69-1.01.02-.03.03-.06.03-.09,0-.05-.03-.08-.08-.08-.04,0-.08.03-.12.08-.09.12-.48.67-.56.8-.03.05-.1.16-.18.22-.03.02-.08.04-.12.04-.04,0-.06,0-.06-.06,0-.03.01-.07.04-.13.24-.48.64-1.19,1.37-1.6.54-.31,1.38-.03,2.2-.43h0c.32-.14.63-.61.75-.8v.02c-.05,1.36-.77,2.55-1,2.86l-.49.16c.1-.16.54-.76.63-.89.04-.06.06-.11.06-.15,0-.05-.03-.09-.08-.09ZM30.14,1.92s.03,0,.06,0c.09-.02.18-.03.25-.03.13,0,.24.03.3.05.04.02.15.1.26.14.03,0,.06.01.09.01.1,0,.2-.05.25-.13.03-.06.05-.11.05-.16,0-.14-.1-.22-.19-.22,0,0,0,0,0,0,0,0,0,0,0,0-.04,0-.06-.03-.06-.03,0,0,0-.01.05-.02.01,0,.02,0,.03,0,.19,0,.3.16.29.35,0,.14-.08.29-.25.37-.07.02-.14.03-.2.03-.23,0-.33-.17-.55-.19-.04,0-.08,0-.12,0-.16,0-.22.02-.32.02-.15-.04-.24-.02-.24-.32,0-.05.05-.1.08-.1.02,0,.03,0,.05.04.06.11.04.19.16.19ZM29.07.58h.36l.19-.29.11.29h.35s-.25.29-.25.29l.12.29h-.32l-.25.29-.09-.29h-.3s.18-.27.18-.27l-.1-.3ZM27.6,2.57c-.06-.04-.1-.08-.1-.11,0,0,0,0,0-.01,0-.05.12-.19.17-.18h0c.08,0,.14.02.23.05.01,0,.02,0,.02,0,.06,0,.08-.06.08-.1,0-.05-.01-.11-.04-.14-.05-.05-.18-.1-.17-.19,0,0,0,0,0-.02.01-.08.02-.12.03-.14.03,0,.08-.01.13-.01.04,0,.08,0,.1.02.06.05.04.05.12.14.03.04.08.05.12.05.06,0,.13-.03.14-.1,0-.02,0-.04-.02-.06-.04-.07-.09-.16-.09-.25,0-.05.02-.09.05-.15,0,0,.01-.01.04-.01.06,0,.18.06.22.15.06.12.03.47.05.54.01.05.04.15.18.23.14.08.73.34.73.35.1.05.18.08.23.1.03.01.04.02.06.03,0,0,0,0,0,0-.03.02-.13.06-.29.13-.23.1-.48.31-.64.49-.01,0-.02.01-.03.01-.05.02-.13-.22-.4-.53-.04-.06-.15-.11-.25-.11h0c-.08,0-.16.03-.19.12-.09.24-.25.21-.33.21,0,0-.02,0-.03,0-.04,0-.08,0-.11,0,.02-.09.11-.35.24-.34h.02c.09,0,.15-.05.15-.1,0-.05-.04-.09-.1-.09-.01,0-.03,0-.04,0-.08.03-.15.06-.19.06-.03,0-.05,0-.08-.03M26.9,3.78h.36s.19-.29.19-.29l.11.29h.35s-.25.29-.25.29l.12.29h-.32s-.25.29-.25.29l-.09-.29h-.3s.18-.27.18-.27l-.1-.3ZM26.51,6.28c-.09,0-.17-.02-.21-.03.03-.06.1-.19.18-.29.09-.12.18-.11.32-.13.09-.01.15-.07.15-.14,0-.05-.04-.09-.09-.09,0,0,0,0,0,0-.05,0-.11,0-.18,0-.1,0-.18-.02-.23-.12,0,0,0,0,0,0,0-.02.04-.08.1-.13.06-.05.14-.09.2-.09h0c.15,0,.28.05.4.05h0c.45-.01.69-.13.83-.24.07-.06.11-.11.13-.15.01-.02.02-.04.03-.05,0,0,0,0,0,0,.35.1.7.19,1.07.26,0,.07-.12.34-.27.47-.04.04-.07.05-.08.05,0,0-.01,0-.02-.04,0-.02,0-.05.02-.08,0-.02.02-.04.02-.06,0-.04-.03-.07-.06-.07-.06,0-.12.05-.13.14,0,.04-.09.24-.15.29-.03.03-.06.04-.07.05,0-.02.02-.07.05-.14,0-.02.01-.04.01-.06,0-.05,0-.1-.07-.11-.04,0-.07.03-.11.09-.02.04-.1.25-.14.27-.03.02-.05.03-.06.03,0-.01.01-.05.03-.08.02-.04.03-.08.03-.12,0-.03,0-.05-.04-.07-.02,0-.03.01-.03.02-.13.2-.3.12-.45.17,0,0,0,0,0,0-.08,0-.17.08-.17.21,0,.04,0,.08.02.13,0,.01,0,.03,0,.04,0,.09-.07.24-.1.28-.03.04-.1.09-.13.11-.03-.04-.11-.13-.1-.22,0-.02,0-.04.02-.07.02-.03.02-.06.03-.09,0-.06-.04-.1-.08-.1s-.09.04-.11.11c-.04.15-.08.22-.15.27-.07.05-.12.09-.15.1,0-.01-.02-.08-.01-.15,0-.04,0-.09.01-.12.02-.11.06-.09.14-.17.03-.03.04-.06.04-.09,0-.05-.04-.09-.09-.09,0,0-.02,0-.02,0h0c-.08.03-.21.24-.32.24h0ZM26.56,7.77l.18-.28-.09-.3h.36l.2-.29.11.29h.35s-.25.29-.25.29l.12.29h-.32l-.25.29-.09-.29h-.31ZM29.64,10.26h-.32l-.25.29-.09-.29h-.31s.18-.27.18-.27l-.09-.3h.36s.19-.29.19-.29l.11.29h.35s-.25.29-.25.29l.12.29ZM29.54,8.03s0,.03,0,.05c0,.26.05.26.12.36h0c-.11,0-.18.06-.19.16,0,.03,0,.06,0,.09-.11-.05-.22-.1-.29-.1-.04,0-.09.03-.09.07,0,.01,0,.03,0,.04,0,.07.01.13.02.17-.1-.03-.21-.16-.28-.21h0s-.04-.01-.06-.02c-.18,0-.74.2-.81.31-.05.11-.06.28-.16.37-.04-.1-.15-.18-.27-.18-.03,0-.06,0-.09.02-.15.06-.34.32-.46.31,0,0-.02,0-.02,0-.15-.04-.12,0-.18-.07.01-.05.06-.2.09-.21.07-.03.1-.05.24-.06.05,0,.09-.03.1-.07,0-.05-.05-.09-.11-.09-.02,0-.03,0-.05,0-.02,0-.05.01-.09.01-.1,0-.23-.04-.24-.1.07-.08.13-.16.23-.16.02,0,.04,0,.07,0,.03,0,.05.01.08.01.08,0,.13-.05.13-.11,0-.05-.04-.1-.11-.1,0,0,0,0,0,0-.03,0-.06,0-.08,0-.11,0-.21-.02-.22-.06.11-.11.22-.17.33-.22.01,0,.02,0,.03,0,.09,0,.23.14.28.21.03.04.08.06.13.06.23,0,.64-.31.75-.37.13-.07.56-.29.56-.29h.02s-.04-.12-.04-.12v-.03s-.04.03-.04.03c0,0-.08.07-.2.07-.07,0-.17-.03-.27-.12,0,0,0,0,0,0,.03,0,.07,0,.1,0,.03,0,.07-.02.07-.06,0,0,0,0,0-.02-.07-.1-.13,0-.24-.17h0s.09,0,.13,0c.02,0,.06,0,.07-.04,0-.01,0-.02,0-.03-.04-.06-.14-.13-.19-.21.01,0,.03,0,.04,0,.04,0,.09,0,.12,0,.01,0,.05,0,.05-.04,0,0,0-.02,0-.02-.06-.04-.1-.07-.14-.13.05,0,.12.03.22.03.07,0,.15-.01.25-.05.25-.13.94-.5.94-.5.23-.15.43-.21.59-.21.29,0,.45.2.44.43,0,.19-.13.41-.41.56-.78.41-.87.51-.88.77ZM33.64,7.28h-.32l-.25.29-.09-.29h-.31s.18-.27.18-.27l-.09-.31h.36s.19-.29.19-.29l.11.29h.35s-.25.29-.25.29l.12.29ZM33.62,5.62c-.22.34-.67.7-1.12.72-.35.01-.6.18-.61.53,0,.12.02.26.08.42.06.16.27.41.54.46.12.02.22.04.3.05.03,0,.06.01.08.01-.15.09-.19.13-.2.18,0,.03.03.05.05.05.02,0,.08,0,.14,0-.1.06-.17.1-.18.16,0,.06.06.06.15.06.02,0,.04,0,.06,0-.04.05-.17.11-.37.11-.01,0-.03,0-.04,0-.02,0-.04,0-.05,0-.16,0-.29.09-.43.39-.19.33-.5,1.09-.92,1.12,0,0-.01,0-.02,0-.09,0-.16.09-.22.15-.02.02-.09.04-.15.04-.07,0-.14-.01-.16-.02,0,0,0,0,0-.02,0-.04.03-.11.07-.15.04-.05.08-.08.11-.08.14-.02.21-.09.22-.16,0-.04-.03-.07-.07-.07-.01,0-.02,0-.04,0-.12.05-.2.2-.26.19h0c-.07-.01-.16-.04-.21-.05.02-.07.09-.26.29-.28.12,0,.19-.05.2-.11,0-.05-.04-.08-.1-.08-.07.03-.13.05-.19.05-.08,0-.15-.02-.19-.07.02-.05.15-.2.33-.2.06,0,.13.02.21.07.08.04.13.06.18.06.12,0,.17-.1.21-.21.06-.14.32-.47.32-.47,0,0,.06-.1.06-.18,0-.06-.04-.12-.13-.12-.02,0-.04,0-.06,0-.09.01-.19.03-.29.03-.24,0-.47-.08-.5-.53,0-.03,0-.05,0-.08.01-.35.24-.52.28-.61,0-.03.03-.12.03-.23,0-.22-.06-.54-.44-.66-.84-.06-1.13-.64-1.21-.98.11,0,.24.01.38.01.58,0,1.32-.07,1.63-.24.12.48.58,1.04,1.23,1.04.16,0,.34-.04.52-.12.42-.19.6-.54.61-.9.01-.31-.1-.63-.27-.88-.16-.23-.2-.42-.19-.57,0-.17.07-.3.07-.41,0-.01,0-.02,0-.04,0-.04,0-.08,0-.13,0-.26.12-.61.25-.81.12-.2.52-.42.67-.49-.14.13-.53.45-.54.63v.05s.04-.02.04-.02c.06-.04.26-.16.39-.23.07-.04.12-.09.17-.14-.04.12-.13.31-.26.36-.23.1-.36.31-.41.41l-.03.05h.06c.08-.03.68-.23,1-.99-.04.41-.29.98-.67,1.11-.44.15-.6.29-.61.59,0,.01,0,.03,0,.04,0,.33.22.5.33.8.07.16.08.28.16.3,0,0,.02,0,.03-.01.02-.02.05-.04.08-.07-.05.1-.11.22-.11.28,0,.02.01.05.04.05,0,0,0,0,.02,0l.09-.02c-.04.08-.12.2-.13.26,0,.02.02.04.04.04,0,0,.02,0,.02,0l.18-.06c-.13.14-.4.43-.49.6ZM34.4,3.8l-.25.29-.09-.29h-.3s.18-.27.18-.27l-.1-.3h.36l.19-.29.11.29h.35l-.25.29.12.29h-.32Z"/>
    </g>
    <g>
      <path class="cls-1" d="M5.19,3.18H1.95l.85-3.18h10.93l-.85,3.18h-4.18l-1.94,7.25h-3.51l1.94-7.25Z"/>
      <path class="cls-1" d="M17.42,3.18h-3.34l.85-3.18h5.25l.51,5.78,2.36-5.78h3.61l-4.95,10.43h-3.25l-1.04-7.25Z"/>
      <path class="cls-1" d="M11.84,11.05c-1.7,0-3.38-.87-3.38-2.53,0-.21.02-.42.07-.65l1.1-4.1h3.09l-.88,3.27c-.04.16-.08.42-.08.42,0,.45.21.62.5.62h.05c.28,0,.59-.25.69-.7l.97-3.61h3.12l-1.17,4.3c-.6,2.24-2.31,2.98-4.1,2.98h0Z"/>
    </g>
  </g>
  <polygon class="cls-1" points="2.91 22.52 0 22.52 1.02 18.72 3.93 18.72 2.91 22.52"/>
  <polygon class="cls-1" points="30.03 22.52 21.78 22.52 22.8 18.72 31.05 18.72 30.03 22.52"/>
  <g>
    <path class="cls-1" d="M4.43,18.71h.37l-.53,1.97c.57-.47,1.69-1.37,2.41-1.97h.46l-1.95,1.59,1.02,2.21h-.46l-.89-1.97-.69.53-.39,1.44h-.37l1.02-3.8Z"/>
    <path class="cls-1" d="M7.4,21.27l-.76,1.25h-.38c.63-1.03,1.62-2.64,2.33-3.8h.47l.34,3.8h-.41l-.1-1.25h-1.5ZM8.88,20.95c-.08-1.06-.15-1.63-.15-1.91h-.01c-.24.46-.61,1.04-1.14,1.91h1.3Z"/>
    <path class="cls-1" d="M10.85,20.73l-.48,1.79h-.37l1.02-3.8h1.32c.68,0,1.06.32.89.96-.15.56-.57.8-.9.89.39.12.49.44.35.97l-.02.06c-.1.36-.18.69-.19.92h-.38c-.01-.15.08-.54.18-.91l.02-.07c.15-.58,0-.81-.7-.81h-.74ZM10.93,20.42h.77c.56,0,.97-.16,1.13-.73.11-.43-.11-.67-.63-.67h-.89l-.37,1.4Z"/>
    <path class="cls-1" d="M14.35,18.71h1.28c.73,0,1.13.37.96,1.02-.2.73-.81,1.08-1.59,1.08h-.83l-.45,1.7h-.38l1.02-3.8ZM14.24,20.51h.83c.54,0,.96-.18,1.12-.76.13-.49-.18-.72-.72-.72h-.82l-.4,1.48Z"/>
    <path class="cls-1" d="M16.92,21.27l-.76,1.25h-.38c.63-1.03,1.62-2.64,2.33-3.8h.47l.34,3.8h-.41l-.1-1.25h-1.5ZM18.4,20.95c-.08-1.06-.15-1.63-.15-1.91h-.01c-.24.46-.61,1.04-1.14,1.91h1.3Z"/>
    <path class="cls-1" d="M20.68,19.04h-1.18l.09-.32h2.75l-.09.32h-1.19l-.93,3.48h-.38l.93-3.48Z"/>
  </g>
</svg>